# xmcd
#
# Track frame offsets: 
#        150
#        12800
#        25635
#        40057
#        56687
#        72395
#        81167
#        93860
#        106215
#        128987
#        152652
#        167352
#        183485
#        194630
#        210555
#        228110
#        259135
#        281097
#
# Disc length: 4086 seconds
#
# Revision: 1
# Processed by: cddbd v1.5.2PL0 Copyright (c) Steve Scherf et al.
# Submitted via: ExactAudioCopyFreeDBPlugin 1.0
#
DISCID=eb0ff412
DTITLE=B B King - The Blues Anthology, 2005
DYEAR=2005
DGENRE=Blues
TTITLE0=Got The Blues (1949)
TTITLE1=Mistreated Woman (1950)
TTITLE2=B.B. Boogie (1950)
TTITLE3=The Other Night Blues (1950)
TTITLE4=Walkin' And Cryin' (1950)
TTITLE5=A New Way Of Driving (1951)
TTITLE6=Please Love Me (1953)
TTITLE7=From The Bottom (1954)
TTITLE8=Every Day I Have The Blues (1958 or 1959)
TTITLE9=You Done Lost Your Good Thing Now (1960)
TTITLE10=Mr. Pawnbroker (1960)
TTITLE11=My Own Fault, Darling (1960)
TTITLE12=Catfish Blues(Aka Fishin' After Me) (1960)
TTITLE13=Long Nights(The Feeling They Call The Blues) (1960)
TTITLE14=That Evil Child (date unknow)
TTITLE15=I Got Some Help(I Don't Really Need) (date unknow)
TTITLE16=The Thrill Is Gone (date unknow)
TTITLE17=Guess Who? (date unknow)
EXTD=
EXTT0=
EXTT1=
EXTT2=
EXTT3=
EXTT4=
EXTT5=
EXTT6=
EXTT7=
EXTT8=
EXTT9=
EXTT10=
EXTT11=
EXTT12=
EXTT13=
EXTT14=
EXTT15=
EXTT16=
EXTT17=
PLAYORDER=
